<svg width="48" height="48" viewBox="0 0 48 48" fill="none" xmlns="http://www.w3.org/2000/svg">
<rect width="48" height="48" rx="24" fill="#FCFCFC"/>
<path fill-rule="evenodd" clip-rule="evenodd" d="M20.9358 35.3853C20.9358 39.0387 17.9702 41.9999 14.3116 41.9999C10.6531 41.9999 7.6875 39.0387 7.6875 35.3853C7.6875 31.7327 10.6531 28.7712 14.3116 28.7712C17.9702 28.7712 20.9358 31.7327 20.9358 35.3853Z" fill="#FF59B3"/>
<path fill-rule="evenodd" clip-rule="evenodd" d="M15.2579 28.8467C15.2579 28.8467 20.1185 29.9157 18.0912 25.5317L23.3691 29.6402C23.3691 29.6402 19.2467 28.5032 20.4421 32.821L15.2579 28.8467Z" fill="#FF59B3"/>
<path fill-rule="evenodd" clip-rule="evenodd" d="M28.0556 26.7916C23.3843 26.7916 19.584 22.9968 19.584 18.3325C19.584 13.6679 23.3843 9.87341 28.0556 9.87341C32.7269 9.87341 36.5273 13.6679 36.5273 18.3325C36.5273 22.9968 32.7269 26.7916 28.0556 26.7916ZM28.0556 6.09375C21.2862 6.09375 15.7987 11.5734 15.7987 18.3325C15.7987 25.0918 21.2862 30.5712 28.0556 30.5712C34.825 30.5712 40.3125 25.0918 40.3125 18.3325C40.3125 11.5734 34.825 6.09375 28.0556 6.09375Z" fill="#FF59B3"/>
</svg>
